#N canvas 379 186 1061 583 12;
#X obj 26 317 select 1;
#X text 489 18 specify desired number of hits per bar;
#X text 315 18 specify length of bar;
#X text 98 315 <-- bang out on each hit. (Silent on rest.);
#X obj 25 112 f;
#X obj 61 112 + 1;
#X obj 25 147 mod \$1;
#X obj 25 51 threshold~ 0.9 0 0.9 0;
#X obj 25 27 inlet~;
#X obj 26 346 bng 15 250 50 0 empty empty empty 17 7 0 10 -262144 -1
-1;
#X obj 26 394 vline~;
#X obj 26 420 outlet~;
#X msg 26 369 1 0 \, 0 1 1;
#X obj 200 449 hsl 128 15 1 32 0 1 \$0-length empty empty -2 -8 0 10
-262144 -1 -1 3150 1;
#X obj 317 212 int;
#X floatatom 394 453 3 0 0 0 - - -, f 3;
#X obj 200 479 hsl 128 15 1 32 0 1 \$0-numhits empty empty -2 -8 0
10 -262144 -1 -1 2050 1;
#X obj 520 258 int;
#X floatatom 394 482 3 0 0 0 - - -, f 3;
#X text 333 446 Length;
#X text 333 477 Num Hits;
#X obj 200 464 hsl 128 15 0 1 0 0 \$0-lenCV empty empty -2 -8 0 10
-158136 -1 -1 0 1;
#X obj 200 494 hsl 128 15 0 1 0 0 \$0-numCV empty empty -2 -8 0 10
-158136 -1 -1 0 1;
#X obj 317 47 inlet~;
#X obj 520 52 inlet~;
#X obj 795 75 threshold~ 0.9 0 0.9 0;
#X obj 795 51 inlet~;
#X obj 317 74 unsig~;
#X obj 317 103 *;
#X obj 520 189 +;
#X obj 317 158 +;
#X obj 520 82 unsig~;
#X obj 520 111 *;
#X obj 355 102 r \$0-lenCV;
#X obj 559 111 r \$0-numCV;
#X obj 317 132 * 32;
#X obj 520 150 * 32;
#X text 791 24 reset;
#X msg 795 104 0;
#X obj 25 218 *;
#X obj 26 252 %;
#X obj 26 285 <;
#X text 257 427 CV-Len;
#X text 320 427 CV-Num;
#X text 382 427 Reset;
#X text 333 462 CV-Len;
#X text 333 492 CV-Num;
#X obj 317 187 clip 1 32;
#X obj 520 228 clip 1 32;
#X obj 795 133 s 0$-reset;
#X obj 43 80 r 0$-reset;
#X obj 355 158 r \$0-length;
#X obj 558 189 r \$0-numhits;
#X text 21 7 send a trigger to count through the bar;
#N canvas 495 23 585 337 credits 0;
#X text 13 39 Patch by Nick Marcoux;
#X text 13 95 https://nickmarcoux.bandcamp.com/;
#X text 13 135 Euclidean algorithm used was found here:;
#X text 13 155 https://forum.pdpatchrepo.info/topic/5968/euclidean-rhythm-abstraction
;
#X text 13 59 Youtube user pd_777: youtube.com/channel/UCYtaa7Qj4C4990yloa0_0jg
;
#X restore 19 567 pd credits;
#X connect 0 0 9 0;
#X connect 4 0 5 0;
#X connect 4 0 6 0;
#X connect 5 0 4 1;
#X connect 6 0 39 0;
#X connect 7 0 4 0;
#X connect 8 0 7 0;
#X connect 9 0 12 0;
#X connect 10 0 11 0;
#X connect 12 0 10 0;
#X connect 14 0 15 0;
#X connect 14 0 6 1;
#X connect 14 0 40 1;
#X connect 17 0 18 0;
#X connect 17 0 39 1;
#X connect 17 0 41 1;
#X connect 23 0 27 0;
#X connect 24 0 31 0;
#X connect 25 0 38 0;
#X connect 26 0 25 0;
#X connect 27 0 28 0;
#X connect 28 0 35 0;
#X connect 29 0 48 0;
#X connect 30 0 47 0;
#X connect 31 0 32 0;
#X connect 32 0 36 0;
#X connect 33 0 28 1;
#X connect 34 0 32 1;
#X connect 35 0 30 0;
#X connect 36 0 29 0;
#X connect 38 0 49 0;
#X connect 39 0 40 0;
#X connect 40 0 41 0;
#X connect 41 0 0 0;
#X connect 47 0 14 0;
#X connect 48 0 17 0;
#X connect 50 0 4 1;
#X connect 51 0 30 1;
#X connect 52 0 29 1;
#X coords 0 -1 1 1 224 87 1 197 427;
