#N canvas 668 23 772 828 12;
#X obj 158 413 moog~;
#X obj 288 136 hsl 128 15 0.01 1 1 1 empty empty Cutoff 6 6 0 10 -262144
-1 -1 9300 1;
#X obj 288 153 hsl 128 15 1 4 0 0 empty empty Resonance 5 6 0 10 -262144
-1 -1 0 1;
#X obj 442 136 hsl 128 15 0 2 0 1 empty empty Volume 5 6 0 10 -262144
-1 -1 6350 1;
#X obj 442 153 hsl 128 15 -1 1 0 1 empty empty VCF\ EG\ Amount 5 6
0 10 -262144 -1 -1 0 1;
#X obj 442 170 hsl 128 15 5 10000 1 1 empty empty VCF\ Decay 5 6 0
10 -262144 -1 -1 2700 1;
#X obj 288 170 hsl 128 15 1 10000 1 1 empty empty VCF\ Attack 5 6 0
10 -262144 -1 -1 10200 1;
#X obj 442 187 hsl 128 15 5 10000 1 1 empty empty VCA\ Decay 5 6 0
10 -262144 -1 -1 9900 1;
#X obj 288 187 hsl 128 15 1 10000 1 1 empty empty VCA\ Attack 5 6 0
10 -262144 -1 -1 0 1;
#X obj 517 709 outlet~;
#X obj 517 665 *~;
#X obj 535 637 lop~ 5;
#X obj 224 137 lop~ 5;
#X obj 222 62 inlet bang;
#X obj 86 68 inlet~ sig;
#X obj 659 173 lop~ 5;
#N canvas 922 51 450 323 eg 0;
#X obj 246 275 outlet~;
#X obj 246 202 vline~;
#X obj 246 146 pack f f f;
#X obj 45 -8 inlet bang;
#X obj 187 -8 inlet attack;
#X obj 301 -8 inlet decay;
#X obj 246 231 expr~ pow($v1 \, 1.5);
#X msg 246 174 1 \$2 \, 0 \$3 \$2;
#X obj 78 83 spigot;
#X msg 99 52 0;
#X msg 131 52 1;
#X obj 166 52 loadbang;
#X obj 45 22 t b b;
#X obj 78 129 delay 1;
#X connect 1 0 6 0;
#X connect 2 0 7 0;
#X connect 3 0 12 0;
#X connect 4 0 2 1;
#X connect 4 0 13 1;
#X connect 5 0 2 2;
#X connect 6 0 0 0;
#X connect 7 0 1 0;
#X connect 8 0 13 0;
#X connect 8 0 2 0;
#X connect 9 0 8 1;
#X connect 10 0 8 1;
#X connect 11 0 10 0;
#X connect 12 0 9 0;
#X connect 12 1 8 0;
#X connect 13 0 10 0;
#X restore 302 415 pd eg;
#X obj 311 531 *~;
#N canvas 887 451 450 323 eg 0;
#X obj 266 293 outlet~;
#X obj 65 -10 inlet bang;
#X obj 187 -8 inlet attack;
#X obj 301 -8 inlet decay;
#X obj 266 206 vline~;
#X obj 266 150 pack f f f;
#X obj 266 235 expr~ pow($v1 \, 1.5);
#X msg 266 178 1 \$2 \, 0 \$3 \$2;
#X obj 98 87 spigot;
#X msg 119 56 0;
#X msg 151 56 1;
#X obj 186 56 loadbang;
#X obj 65 26 t b b;
#X obj 98 133 delay 1;
#X connect 1 0 12 0;
#X connect 2 0 5 1;
#X connect 2 0 13 1;
#X connect 3 0 5 2;
#X connect 4 0 6 0;
#X connect 5 0 7 0;
#X connect 6 0 0 0;
#X connect 7 0 4 0;
#X connect 8 0 13 0;
#X connect 8 0 5 0;
#X connect 9 0 8 1;
#X connect 10 0 8 1;
#X connect 11 0 10 0;
#X connect 12 0 9 0;
#X connect 12 1 8 0;
#X connect 13 0 10 0;
#X restore 641 221 pd eg;
#X obj 659 141 expr if($f1>0 \, $f1*(1-$f2) \, $f1*$f2);
#X obj 659 105 t b f;
#X obj 641 250 *~;
#X obj 174 317 +~;
#X obj 174 346 *~ 19980;
#X obj 174 375 +~ 20;
#X obj 641 279 lop~ 50;
#X obj 302 444 lop~ 50;
#X obj 389 29 spigot;
#X msg 410 -2 0;
#X msg 442 -2 1;
#X obj 477 -2 loadbang;
#X obj 316 48 t b b;
#X obj 405 75 delay 15;
#X connect 0 0 17 0;
#X connect 1 0 12 0;
#X connect 1 0 20 0;
#X connect 2 0 0 2;
#X connect 3 0 11 0;
#X connect 4 0 19 0;
#X connect 5 0 18 2;
#X connect 6 0 18 1;
#X connect 7 0 16 2;
#X connect 8 0 16 1;
#X connect 10 0 9 0;
#X connect 11 0 10 1;
#X connect 12 0 22 0;
#X connect 13 0 31 0;
#X connect 14 0 0 0;
#X connect 15 0 21 1;
#X connect 16 0 26 0;
#X connect 17 0 10 0;
#X connect 18 0 21 0;
#X connect 19 0 15 0;
#X connect 20 0 19 0;
#X connect 20 1 19 1;
#X connect 21 0 25 0;
#X connect 22 0 23 0;
#X connect 23 0 24 0;
#X connect 24 0 0 1;
#X connect 25 0 22 1;
#X connect 26 0 17 1;
#X connect 27 0 32 0;
#X connect 27 0 16 0;
#X connect 27 0 18 0;
#X connect 27 0 3 0;
#X connect 28 0 27 1;
#X connect 29 0 27 1;
#X connect 30 0 29 0;
#X connect 31 0 28 0;
#X connect 31 1 27 0;
#X connect 32 0 29 0;
#X coords 0 -1 1 1 296 74 2 284 132;
