#N canvas 0 23 1440 828 12;
#X obj 423 61 hsl 236 15 0 127 0 1 empty empty empty -2 -8 0 10 -262144
-1 -1 6400 1;
#X obj 42 331 mtof;
#X obj 423 84 hradio 15 0 0 16 empty empty empty 0 -8 0 10 -262144
-1 -1 0;
#X obj 423 108 hradio 15 0 0 16 empty empty empty 0 -8 0 10 -262144
-1 -1 0;
#N canvas 0 23 1440 828 vco1 0;
#X obj 259 -404 phasor~;
#X obj 260 -440 inlet~ freq;
#X obj 734 -440 inlet~ pulsewidth;
#X obj 571 -296 expr~ if($v1<(0.5+$v2/2) \, -1 \, 1);
#X text 787 -416 range: -1 to 1;
#X obj 381 -144 *~;
#X obj 568 -137 *~;
#X text 288 -320 saw down;
#X text 636 -318 square;
#X obj 509 19 outlet~;
#X obj 509 -25 lop~ 18000;
#X obj 971 -442 inlet wavefrom;
#X obj 991 -398 == 0;
#X obj 951 -398 == 1;
#X obj 265 -295 expr~ -($v1*2-1);
#X obj 1167 -439 inlet reset;
#X msg 1167 -410 0;
#X connect 0 0 3 0;
#X connect 0 0 14 0;
#X connect 1 0 0 0;
#X connect 2 0 3 1;
#X connect 3 0 6 0;
#X connect 5 0 10 0;
#X connect 6 0 10 0;
#X connect 10 0 9 0;
#X connect 11 0 12 0;
#X connect 11 0 13 0;
#X connect 12 0 6 1;
#X connect 13 0 5 1;
#X connect 14 0 5 0;
#X connect 15 0 16 0;
#X connect 16 0 0 1;
#X restore 598 540 pd vco1;
#X obj 714 81 vradio 15 0 0 3 empty empty empty 0 -8 0 10 -262144 -1
-1 0;
#X obj 673 349 expr if($f1==2 \, 0 \, $f1) \; if($f1==2 \, 1 \, $f1)
\;;
#X text 729 93 Saw;
#X obj 732 591 *~;
#X obj 763 591 == 2;
#X obj 1022 524 bng 15 250 50 0 empty empty empty 17 7 0 10 -262144
-1 -1;
#X obj 822 108 s \$0-wave;
#X obj 1022 437 r \$0-wave;
#X obj 796 568 r \$0-wave;
#X text 425 81 1;
#X text 470 81 4;
#X text 530 81 8;
#X text 587 81 12;
#X text 647 81 16;
#X text 425 105 1;
#X text 470 105 4;
#X text 530 105 8;
#X text 587 105 12;
#X text 647 105 16;
#X obj 600 634 *~;
#X obj 423 164 hsl 111 15 0 0.333 0 1 empty empty VCO\ Level 3 6 0
10 -262144 -1 -1 9539 1;
#X obj 751 632 *~;
#X obj 901 628 *~;
#N canvas 0 23 1440 828 sub1 0;
#X obj 259 -404 phasor~;
#X obj 260 -440 inlet~ freq;
#X obj 734 -440 inlet~ pulsewidth;
#X obj 571 -296 expr~ if($v1<(0.5+$v2/2) \, -1 \, 1);
#X text 787 -416 range: -1 to 1;
#X obj 381 -144 *~;
#X obj 568 -137 *~;
#X text 288 -320 saw down;
#X text 636 -318 square;
#X obj 509 19 outlet~;
#X obj 509 -25 lop~ 18000;
#X obj 971 -442 inlet wavefrom;
#X obj 991 -398 == 0;
#X obj 951 -398 == 1;
#X obj 265 -295 expr~ -($v1*2-1);
#X obj 1133 -439 inlet reset;
#X msg 1133 -410 0;
#X connect 0 0 3 0;
#X connect 0 0 14 0;
#X connect 1 0 0 0;
#X connect 2 0 3 1;
#X connect 3 0 6 0;
#X connect 5 0 10 0;
#X connect 6 0 10 0;
#X connect 10 0 9 0;
#X connect 11 0 12 0;
#X connect 11 0 13 0;
#X connect 12 0 6 1;
#X connect 13 0 5 1;
#X connect 14 0 5 0;
#X connect 15 0 16 0;
#X connect 16 0 0 1;
#X restore 732 539 pd sub1;
#N canvas 0 23 1440 828 sub2 0;
#X obj 259 -404 phasor~;
#X obj 260 -440 inlet~ freq;
#X obj 734 -440 inlet~ pulsewidth;
#X obj 571 -296 expr~ if($v1<(0.5+$v2/2) \, -1 \, 1);
#X text 787 -416 range: -1 to 1;
#X obj 381 -144 *~;
#X obj 568 -137 *~;
#X text 288 -320 saw down;
#X text 636 -318 square;
#X obj 509 19 outlet~;
#X obj 509 -25 lop~ 18000;
#X obj 971 -442 inlet wavefrom;
#X obj 991 -398 == 0;
#X obj 951 -398 == 1;
#X obj 265 -295 expr~ -($v1*2-1);
#X obj 1128 -443 inlet reset;
#X msg 1128 -414 0;
#X connect 0 0 3 0;
#X connect 0 0 14 0;
#X connect 1 0 0 0;
#X connect 2 0 3 1;
#X connect 3 0 6 0;
#X connect 5 0 10 0;
#X connect 6 0 10 0;
#X connect 10 0 9 0;
#X connect 11 0 12 0;
#X connect 11 0 13 0;
#X connect 12 0 6 1;
#X connect 13 0 5 1;
#X connect 14 0 5 0;
#X connect 15 0 16 0;
#X connect 16 0 0 1;
#X restore 901 539 pd sub2;
#X obj 662 708 *~ 1;
#X obj 543 164 hsl 111 15 0 0.333 0 1 empty empty Sub1\ Level 4 6 0
10 -262144 -1 -1 9539 1;
#X obj 663 164 hsl 111 15 0 0.333 0 1 empty empty Sub2\ Level 2 6 0
10 -262144 -1 -1 9539 1;
#X obj 662 740 outlet~;
#X text 664 58 Freq;
#X text 664 81 Sub1;
#X text 664 105 Sub2;
#X obj 332 86 s \$0-sub1;
#X obj 331 114 s \$0-sub2;
#X obj 1022 467 r \$0-sub1;
#X obj 1022 497 r \$0-sub2;
#X obj 673 318 r \$0-wave;
#X obj 531 138 tgl 15 1 empty empty empty 17 7 0 10 -262144 -1 -1 1
1;
#X obj 589 138 tgl 15 0 empty empty empty 17 7 0 10 -262144 -1 -1 0
1;
#X text 604 135 SUB1;
#X obj 650 138 tgl 15 0 empty empty empty 17 7 0 10 -262144 -1 -1 0
1;
#X text 665 135 SUB2;
#X text 546 135 VCO;
#X text 713 58 VCO Wave;
#X text 447 135 Seq Assign:;
#X obj 423 9 loadbang;
#X obj 42 303 int;
#X obj 732 568 *~ -0.99;
#X obj 42 366 lop~ 20;
#X obj 634 632 lop~ 20;
#X obj 785 630 lop~ 20;
#X obj 935 626 lop~ 20;
#X obj 102 20 inlet pitch;
#X obj 42 270 +;
#X obj 53 226 t b f;
#X obj 42 395 s~ \$0-freq1;
#X obj 42 169 spigot;
#X obj 598 504 r~ \$0-freq1;
#X obj 732 505 r~ \$0-freqS1;
#X obj 901 505 r~ \$0-freqS2;
#X obj 331 58 s \$0-freq;
#X obj 220 320 + 1;
#X obj 220 289 r \$0-sub1;
#X obj 158 190 spigot;
#X obj 53 199 r \$0-freq;
#X obj 158 349 mtof;
#X obj 158 321 int;
#X obj 188 423 lop~ 20;
#X obj 158 288 +;
#X obj 169 244 t b f;
#X obj 169 217 r \$0-freq;
#X obj 188 460 s~ \$0-freqS1;
#X obj 188 395 /;
#X obj 220 349 t b f;
#X obj 390 320 + 1;
#X obj 328 190 spigot;
#X obj 328 349 mtof;
#X obj 328 321 int;
#X obj 358 423 lop~ 20;
#X obj 328 288 +;
#X obj 339 244 t b f;
#X obj 339 217 r \$0-freq;
#X obj 358 395 /;
#X obj 390 349 t b f;
#X obj 390 289 r \$0-sub2;
#X obj 358 460 s~ \$0-freqS2;
#X text 729 78 Square;
#X text 729 108 Saw->Sq;
#X connect 0 0 65 0;
#X connect 1 0 53 0;
#X connect 2 0 37 0;
#X connect 3 0 38 0;
#X connect 4 0 24 0;
#X connect 5 0 11 0;
#X connect 6 0 4 2;
#X connect 6 1 28 2;
#X connect 6 1 29 2;
#X connect 8 0 4 1;
#X connect 9 0 8 1;
#X connect 10 0 4 3;
#X connect 10 0 28 3;
#X connect 10 0 29 3;
#X connect 12 0 10 0;
#X connect 13 0 9 0;
#X connect 24 0 30 0;
#X connect 25 0 54 0;
#X connect 26 0 30 0;
#X connect 27 0 30 0;
#X connect 28 0 26 0;
#X connect 28 0 52 0;
#X connect 29 0 27 0;
#X connect 30 0 33 0;
#X connect 31 0 55 0;
#X connect 32 0 56 0;
#X connect 39 0 10 0;
#X connect 40 0 10 0;
#X connect 41 0 6 0;
#X connect 42 0 61 1;
#X connect 43 0 68 1;
#X connect 45 0 80 1;
#X connect 50 0 0 0;
#X connect 50 0 2 0;
#X connect 50 0 3 0;
#X connect 50 0 5 0;
#X connect 50 0 25 0;
#X connect 50 0 31 0;
#X connect 50 0 32 0;
#X connect 51 0 1 0;
#X connect 52 0 8 0;
#X connect 53 0 60 0;
#X connect 54 0 24 1;
#X connect 55 0 26 1;
#X connect 56 0 27 1;
#X connect 57 0 61 0;
#X connect 57 0 68 0;
#X connect 57 0 80 0;
#X connect 58 0 51 0;
#X connect 59 0 58 0;
#X connect 59 1 58 1;
#X connect 61 0 58 0;
#X connect 62 0 4 0;
#X connect 63 0 28 0;
#X connect 64 0 29 0;
#X connect 66 0 78 0;
#X connect 67 0 66 0;
#X connect 68 0 73 0;
#X connect 69 0 59 0;
#X connect 70 0 77 0;
#X connect 71 0 70 0;
#X connect 72 0 76 0;
#X connect 73 0 71 0;
#X connect 74 0 73 0;
#X connect 74 1 73 1;
#X connect 75 0 74 0;
#X connect 77 0 72 0;
#X connect 78 0 77 0;
#X connect 78 1 77 1;
#X connect 79 0 88 0;
#X connect 80 0 84 0;
#X connect 81 0 87 0;
#X connect 82 0 81 0;
#X connect 83 0 90 0;
#X connect 84 0 82 0;
#X connect 85 0 84 0;
#X connect 85 1 84 1;
#X connect 86 0 85 0;
#X connect 87 0 83 0;
#X connect 88 0 87 0;
#X connect 88 1 87 1;
#X connect 89 0 79 0;
#X coords 0 -1 1 1 367 130 2 418 55;
