#N canvas 22 33 1092 728 12;
#X obj 23 14 subharmonicon_osc;
#X obj 390 14 subharmonicon_osc;
#X obj 23 218 subharmonicon_seq2;
#X obj 170 144 subharmonicon_quant2;
#X obj 413 144 subharmonicon_vcf_vca2;
#X obj 426 410 outlet~;
#X connect 0 0 4 0;
#X connect 1 0 4 0;
#X connect 2 0 3 0;
#X connect 2 1 4 1;
#X connect 2 2 3 1;
#X connect 2 3 4 1;
#X connect 3 0 0 0;
#X connect 3 1 1 0;
#X connect 4 0 5 0;
#X coords 0 -1 1 1 745 320 2 18 9;
