#N canvas 364 247 1028 556 12;
#N canvas 153 244 790 456 quantize 0;
#X obj 221 121 mod 12;
#X obj 173 237 +;
#X obj 173 159 int;
#X obj 283 158 list-sieve;
#X obj 173 55 inlet MIDI_note;
#X obj 173 332 outlet MIDI_note;
#X msg 350 126 0 2 4 5 7 9 11;
#X obj 350 95 loadbang;
#X obj 221 204 expr if($f1 == $f2 \, 0 \, $f1-$f2);
#X connect 0 0 3 0;
#X connect 0 0 8 0;
#X connect 1 0 5 0;
#X connect 2 0 1 0;
#X connect 3 0 8 1;
#X connect 4 0 0 0;
#X connect 4 0 2 0;
#X connect 6 0 3 1;
#X connect 7 0 6 0;
#X connect 8 0 1 1;
#X restore 208 215 pd quantize;
#X obj 65 75 inlet;
#X obj 396 103 vradio 15 0 0 2 empty empty empty 0 -8 0 10 -262144
-1 -1 0;
#X text 411 100 12-ET;
#X text 411 115 8-ET;
#X obj 366 103 bng 30 250 50 0 empty empty empty 17 7 0 10 -262144
-1 -1;
#X obj 399 11 f;
#X obj 431 11 + 1;
#X obj 399 40 mod 2;
#X obj 36 241 expr if($f1==0 \, $f2 \, $f3);
#X obj 65 119 t b f;
#X obj 139 290 mod 24;
#X obj 83 290 mod 48;
#X obj 487 103 vradio 15 0 0 3 empty empty empty 0 -8 0 10 -262144
-1 -1 0;
#X obj 457 103 bng 30 250 50 0 empty empty empty 17 7 0 10 -262144
-1 -1;
#X obj 484 14 f;
#X obj 516 14 + 1;
#X obj 484 43 mod 3;
#X obj 36 416 expr if($f1==0 \, $f2 \, if($f1==1 \, $f3 \, $f4));
#X obj 36 290 t b f;
#X obj 83 320 t b f;
#X obj 139 320 t b f;
#X obj 36 445 outlet;
#X text 502 100 10;
#X text 502 115 4;
#X text 502 130 2;
#X text 456 81 Octaves;
#X text 365 81 Scale;
#N canvas 153 244 790 456 quantize 0;
#X obj 221 121 mod 12;
#X obj 173 237 +;
#X obj 173 159 int;
#X obj 283 158 list-sieve;
#X obj 173 55 inlet MIDI_note;
#X obj 173 332 outlet MIDI_note;
#X msg 350 126 0 2 4 5 7 9 11;
#X obj 350 95 loadbang;
#X obj 221 204 expr if($f1 == $f2 \, 0 \, $f1-$f2);
#X connect 0 0 3 0;
#X connect 0 0 8 0;
#X connect 1 0 5 0;
#X connect 2 0 1 0;
#X connect 3 0 8 1;
#X connect 4 0 0 0;
#X connect 4 0 2 0;
#X connect 6 0 3 1;
#X connect 7 0 6 0;
#X connect 8 0 1 1;
#X restore 882 223 pd quantize;
#X obj 739 83 inlet;
#X obj 710 249 expr if($f1==0 \, $f2 \, $f3);
#X obj 739 127 t b f;
#X obj 813 298 mod 24;
#X obj 757 298 mod 48;
#X obj 710 424 expr if($f1==0 \, $f2 \, if($f1==1 \, $f3 \, $f4));
#X obj 710 298 t b f;
#X obj 757 328 t b f;
#X obj 813 328 t b f;
#X obj 710 453 outlet;
#X connect 0 0 9 2;
#X connect 1 0 10 0;
#X connect 2 0 9 0;
#X connect 2 0 30 0;
#X connect 5 0 6 0;
#X connect 6 0 7 0;
#X connect 6 0 8 0;
#X connect 7 0 6 1;
#X connect 8 0 2 0;
#X connect 9 0 11 0;
#X connect 9 0 12 0;
#X connect 9 0 19 0;
#X connect 10 0 9 0;
#X connect 10 1 0 0;
#X connect 10 1 9 1;
#X connect 11 0 21 0;
#X connect 12 0 20 0;
#X connect 13 0 18 0;
#X connect 13 0 34 0;
#X connect 14 0 15 0;
#X connect 15 0 16 0;
#X connect 15 0 17 0;
#X connect 16 0 15 1;
#X connect 17 0 13 0;
#X connect 18 0 22 0;
#X connect 19 0 18 0;
#X connect 19 1 18 1;
#X connect 20 0 18 0;
#X connect 20 1 18 2;
#X connect 21 0 18 0;
#X connect 21 1 18 3;
#X connect 28 0 30 2;
#X connect 29 0 31 0;
#X connect 30 0 32 0;
#X connect 30 0 33 0;
#X connect 30 0 35 0;
#X connect 31 0 30 0;
#X connect 31 1 28 0;
#X connect 31 1 30 1;
#X connect 32 0 37 0;
#X connect 33 0 36 0;
#X connect 34 0 38 0;
#X connect 35 0 34 0;
#X connect 35 1 34 1;
#X connect 36 0 34 0;
#X connect 36 1 34 2;
#X connect 37 0 34 0;
#X connect 37 1 34 3;
#X coords 0 -1 1 1 162 74 2 361 80;
